<?xml version="1.0" encoding="UTF-8"?>
<svg version="1.1" xmlns="http://www.w3.org/2000/svg" width="1024" height="1024">
<path d="M0 0 C3.64320901 0.89879544 7.34414472 1.1564736 11.07421875 1.51171875 C10.74421875 2.17171875 10.41421875 2.83171875 10.07421875 3.51171875 C10.72648438 3.88683594 11.37875 4.26195312 12.05078125 4.6484375 C25.12379456 12.30328453 35.56955844 22.53213207 39.92610168 37.4236145 C42.26281604 47.47074266 42.54865503 57.10700192 42.5859375 67.37890625 C42.60282478 69.15252898 42.6209803 70.92614003 42.64033508 72.69973755 C42.6874023 77.31911569 42.71748942 81.93844652 42.74377441 86.5579834 C42.77380098 91.29135482 42.82025407 96.02456374 42.86523438 100.7578125 C42.95077364 110.0090288 43.01833577 119.26027902 43.07421875 128.51171875 C43.74606201 128.09962158 44.41790527 127.68752441 45.11010742 127.26293945 C46.44392456 126.45215942 46.44392456 126.45215942 47.8046875 125.625 C48.68278076 125.08915283 49.56087402 124.55330566 50.46557617 124.0012207 C61.69152406 117.59134629 75.1758108 116.93020299 87.72265625 119.16015625 C103.77597407 123.70794847 116.75494996 133.67515277 124.953125 148.22265625 C126.12293321 150.6111845 127.12237909 153.0290402 128.07421875 155.51171875 C128.71359375 154.81046875 129.35296875 154.10921875 130.01171875 153.38671875 C136.13293261 147.30008802 144.27946873 141.87389063 153.07421875 141.32421875 C153.73421875 141.38609375 154.39421875 141.44796875 155.07421875 141.51171875 C155.40421875 140.85171875 155.73421875 140.19171875 156.07421875 139.51171875 C176.07532478 139.99600703 191.58301614 143.99673853 205.8515625 158.8984375 C211.09686938 165.06559094 214.58130473 172.25720501 218.07421875 179.51171875 C218.69296875 178.93421875 219.31171875 178.35671875 219.94921875 177.76171875 C230.31388199 170.29916122 243.55986551 168.05905358 256.07421875 169.51171875 C271.00400516 172.30312357 283.94262588 179.77884815 292.98046875 192.11328125 C297.49423222 198.90305257 302.07421875 206.18059182 302.07421875 214.51171875 C302.73421875 214.84171875 303.39421875 215.17171875 304.07421875 215.51171875 C305.33996943 237.90050325 305.26179159 260.3005899 305.25952148 282.7175293 C305.25944051 287.10233714 305.2663509 291.48703986 305.2800293 295.87182617 C305.34541703 317.18489471 305.37798872 338.47237869 304.171875 359.7578125 C304.11185334 360.8313243 304.11185334 360.8313243 304.05061913 361.92652321 C301.61791065 404.02225288 289.86628616 443.30648761 270.44921875 480.63671875 C270.11341797 481.28705078 269.77761719 481.93738281 269.43164062 482.60742188 C267.8769417 485.5176518 266.35022709 488.17067074 264.26733398 490.74438477 C258.60872082 497.8163944 258.19395056 503.31086364 258.38671875 512.19921875 C258.22667833 530.45686752 255.20311202 545.04181958 242.26171875 558.88671875 C232.73411135 567.74178915 221.23850261 573.5904919 208.37065125 575.23547363 C207.46173211 575.3572902 206.55281297 575.47910676 205.61635083 575.60461473 C195.52650788 576.85438196 185.48422165 576.94895558 175.33129883 576.93164062 C173.24905449 576.93900483 171.1668142 576.94759775 169.08457947 576.95730591 C163.49797871 576.97927266 157.91152646 576.98246558 152.32488847 576.9805584 C147.63570402 576.98043764 142.94654987 576.9890433 138.25737399 576.99733591 C127.18759343 577.01647694 116.11788826 577.01948643 105.0480957 577.01269531 C93.67634855 577.00604703 82.30492511 577.02897231 70.93324357 577.06600904 C61.11773925 577.09680233 51.30233862 577.10805609 41.48678702 577.10417223 C35.64689723 577.10211634 29.80726019 577.10740485 23.96741676 577.13206482 C18.47673909 577.15449216 12.98658601 577.15232232 7.49590492 577.1321373 C5.49580977 577.12875647 3.49567811 577.13368794 1.49563217 577.14812088 C-18.50297438 577.28234694 -38.92273128 573.93467638 -53.96875 559.56640625 C-61.82729644 551.31571677 -69.86497723 539.40658752 -69.9453125 527.65454102 C-69.90083984 526.04663696 -69.90083984 526.04663696 -69.85546875 524.40625 C-69.64214618 512.09449001 -70.00513635 502.99101012 -78.87353516 493.7956543 C-82.33101801 490.59789859 -85.8799412 487.54680332 -89.52807617 484.5690918 C-93.06379459 481.53523587 -95.97439767 478.10160275 -98.92578125 474.51171875 C-99.88956284 473.40011986 -100.85437712 472.28941534 -101.8203125 471.1796875 C-116.11918951 454.29078834 -128.7678638 435.17340504 -138.92578125 415.51171875 C-139.2515918 414.88894043 -139.57740234 414.26616211 -139.91308594 413.62451172 C-142.34128876 408.96278706 -144.65739982 404.25301672 -146.92578125 399.51171875 C-147.2707666 398.79661133 -147.61575195 398.08150391 -147.97119141 397.34472656 C-163.11644442 365.69689562 -174.48556876 331.20486574 -179.92578125 296.51171875 C-180.1371875 295.25746094 -180.34859375 294.00320313 -180.56640625 292.7109375 C-182.29957733 281.38342649 -182.55905629 269.95025775 -182.92578125 258.51171875 C-182.26578125 258.51171875 -181.60578125 258.51171875 -180.92578125 258.51171875 C-180.64605469 257.68929688 -180.36632812 256.866875 -180.078125 256.01953125 C-174.4503401 240.34859324 -165.97740415 230.04353582 -150.91796875 222.73828125 C-139.37601598 218.00698468 -126.29551741 217.69093278 -114.6328125 222.25390625 C-99.15060858 229.44765757 -91.65434249 240.416353 -82.92578125 254.51171875 C-81.49926927 256.79644184 -80.07071745 259.07988066 -78.64208984 261.36328125 C-77.7619885 262.77298125 -76.88461424 264.18438824 -76.01025391 265.59765625 C-74.19016375 268.72257578 -74.19016375 268.72257578 -71.92578125 271.51171875 C-71.92523648 270.34957289 -71.92469172 269.18742702 -71.92413044 267.99006462 C-71.91006343 240.35632836 -71.87021038 212.7227261 -71.79892563 185.08907574 C-71.79015967 181.6822684 -71.78160972 178.27546056 -71.77319336 174.86865234 C-71.7715143 174.19046452 -71.76983523 173.5122767 -71.76810529 172.81353773 C-71.74149016 161.85575901 -71.73234416 150.89803261 -71.72973982 139.94022487 C-71.72667222 128.68290491 -71.70426338 117.42573379 -71.66525668 106.16847146 C-71.64397241 99.85111169 -71.63130273 93.53400585 -71.63962746 87.21660995 C-71.64719629 81.26245602 -71.63122917 75.30881541 -71.5977211 69.3547554 C-71.58952201 67.17724876 -71.5896972 64.99969074 -71.59918404 62.82218933 C-71.66546787 45.92647718 -69.78624106 33.16341823 -58.92578125 19.51171875 C-58.18328125 18.48046875 -57.44078125 17.44921875 -56.67578125 16.38671875 C-42.01234207 1.05675961 -20.66949083 -5.55123468 0 0 Z M-35.41796875 40.21875 C-39.84976769 46.95829917 -40.34811702 52.40036105 -40.25048828 60.30615234 C-40.24935122 61.38416925 -40.24821417 62.46218616 -40.24704266 63.57287025 C-40.23988392 67.18549071 -40.21148497 70.79764097 -40.18359375 74.41015625 C-40.17493612 77.00976114 -40.16778829 79.60937144 -40.16203308 82.20898438 C-40.1480181 87.81994481 -40.12420195 93.43079068 -40.09414673 99.04168701 C-40.04713717 107.94394447 -40.02462725 116.84617381 -40.00854492 125.74853516 C-40.00717006 126.50130446 -40.0057952 127.25407377 -40.00437868 128.02965426 C-39.9974248 131.89012648 -39.99086789 135.75059919 -39.98457527 139.61107254 C-39.97935606 142.77082094 -39.97345408 145.93056695 -39.96694756 149.09031296 C-39.89822296 182.49594073 -39.96707867 215.90039378 -40.15829086 249.30555153 C-40.16760838 250.93410869 -40.17691754 252.56266589 -40.18621826 254.19122314 C-40.19309147 255.39419597 -40.19309147 255.39419597 -40.20010352 256.62147129 C-40.23152494 262.27259457 -40.25418018 267.92371121 -40.27276611 273.57489014 C-40.29550361 280.4809309 -40.32834458 287.38682651 -40.37468344 294.29275107 C-40.39814436 297.82591507 -40.41701942 301.35894162 -40.42336082 304.8921814 C-40.43050001 308.73476734 -40.46083295 312.57697473 -40.4934082 316.41943359 C-40.49197374 317.53630239 -40.49053928 318.6531712 -40.48906136 319.80388451 C-40.56472039 326.06240468 -41.17182623 330.85175624 -43.92578125 336.51171875 C-47.36721878 339.42945927 -50.38765467 341.3006431 -54.92578125 341.51171875 C-59.41922961 340.84093419 -64.10453018 340.07268406 -67.92578125 337.51171875 C-68.94140625 335.2578125 -68.94140625 335.2578125 -69.92578125 332.51171875 C-71.13304346 330.50619671 -72.38960854 328.53007162 -73.67578125 326.57421875 C-74.48370722 325.33504874 -75.29095091 324.09543374 -76.09765625 322.85546875 C-76.54431641 322.17097656 -76.99097656 321.48648437 -77.45117188 320.78125 C-84.23987516 310.3329411 -91.00339931 299.85276802 -97.36328125 289.13671875 C-98.8801012 286.5926345 -100.40138288 284.05126959 -101.92578125 281.51171875 C-102.49474121 280.56377441 -103.06370117 279.61583008 -103.64990234 278.63916016 C-105.60346804 275.40083948 -107.57552768 272.17434892 -109.55078125 268.94921875 C-110.17267334 267.91297363 -110.79456543 266.87672852 -111.43530273 265.80908203 C-115.43442525 259.32037986 -119.35473635 253.03540038 -126.92578125 250.51171875 C-132.49123616 250.02183022 -137.33259077 249.74357334 -142.42578125 252.19921875 C-148.47809458 257.79760858 -151.58216116 263.69091782 -152.07543945 272.046875 C-151.98784222 274.70202158 -151.77232312 277.30784009 -151.48828125 279.94921875 C-151.39119873 280.93148437 -151.29411621 281.91375 -151.1940918 282.92578125 C-148.92896559 303.28158775 -143.31973746 323.110467 -136.92578125 342.51171875 C-136.64621582 343.36813965 -136.36665039 344.22456055 -136.07861328 345.10693359 C-131.75947551 358.23075851 -126.58987722 370.91444305 -120.92578125 383.51171875 C-120.55694824 384.33591309 -120.18811523 385.16010742 -119.80810547 386.00927734 C-108.120609 411.94074874 -92.60937925 436.17342447 -73.21484375 457.0390625 C-71.29175254 459.11639481 -69.44303607 461.2279686 -67.61328125 463.38671875 C-64.26025784 467.23947162 -60.70169256 470.8797552 -57.11328125 474.51171875 C-56.53731201 475.10065918 -55.96134277 475.68959961 -55.36791992 476.29638672 C-53.92611478 477.7413935 -52.42991194 479.13170514 -50.92578125 480.51171875 C-50.26578125 480.51171875 -49.60578125 480.51171875 -48.92578125 480.51171875 C-48.92578125 481.17171875 -48.92578125 481.83171875 -48.92578125 482.51171875 C-48.26578125 482.51171875 -47.60578125 482.51171875 -46.92578125 482.51171875 C-46.25911458 483.84505208 -45.59244792 485.17838542 -44.92578125 486.51171875 C-44.15234375 487.99671875 -44.15234375 487.99671875 -43.36328125 489.51171875 C-41.25772137 493.90593067 -40.79931833 497.41072444 -40.71484375 502.2734375 C-40.68648438 503.39298828 -40.658125 504.51253906 -40.62890625 505.66601562 C-40.57725813 508.00180166 -40.53286154 510.33776048 -40.49609375 512.67382812 C-40.25852878 521.32020313 -39.22035925 529.3755484 -33.92578125 536.51171875 C-33.26578125 536.51171875 -32.60578125 536.51171875 -31.92578125 536.51171875 C-31.92578125 537.17171875 -31.92578125 537.83171875 -31.92578125 538.51171875 C-30.3895639 539.33447547 -28.84649493 540.14444452 -27.30078125 540.94921875 C-26.44226563 541.40167969 -25.58375 541.85414063 -24.69921875 542.3203125 C-18.93641883 544.79588148 -13.02898022 544.65683079 -6.86807251 544.64543152 C-5.51515187 544.64882985 -5.51515187 544.64882985 -4.1348995 544.65229684 C-1.11807746 544.65861783 1.89869943 544.6578087 4.91552734 544.65698242 C7.08074502 544.65997508 9.24596215 544.66337785 11.41117859 544.66716003 C17.289275 544.6759929 23.16735686 544.67833784 29.04545927 544.67897582 C32.71837357 544.67968667 36.39128416 544.68182164 40.06419754 544.68447304 C52.87906377 544.69372373 65.6939196 544.69780822 78.50878906 544.69702148 C90.45232477 544.6964206 102.39581533 544.70697533 114.33933961 544.72276515 C124.59597847 544.73584144 134.85260258 544.74120535 145.10924971 544.74056607 C151.23400626 544.74031114 157.35872267 544.7431602 163.48347092 544.75374413 C169.24380538 544.76342668 175.00406134 544.76350315 180.76439857 544.75622749 C182.87671969 544.75518189 184.98904569 544.7575431 187.10135841 544.76358795 C189.988512 544.77131411 192.8753949 544.76665885 195.76254272 544.75895691 C197.01129891 544.76667225 197.01129891 544.76667225 198.28528249 544.77454346 C206.9343954 544.72368346 214.36424345 543.24422982 220.70703125 536.87109375 C226.75064833 530.15596366 228.17070883 523.62101598 228.21484375 514.66015625 C228.23417969 513.56058594 228.25351562 512.46101563 228.2734375 511.328125 C228.30694326 509.05746569 228.32549359 506.78652998 228.328125 504.515625 C228.57596343 493.31071916 232.44804617 484.59857143 238.38671875 475.26171875 C274.20298513 417.3626237 274.26532406 354.31772132 274.25952148 288.55932617 C274.25941856 282.37334766 274.27324708 276.18748059 274.29029369 270.00152874 C274.30142425 265.18267805 274.30344063 260.36385467 274.30291176 255.54499245 C274.30408345 253.26259783 274.30845908 250.98020231 274.31624413 248.69782066 C274.3260982 245.52071536 274.32314835 242.34385777 274.31713867 239.16674805 C274.32275818 238.24668976 274.32837769 237.32663147 274.33416748 236.37869263 C274.28373959 225.82776232 273.08363813 215.79557802 266.07421875 207.51171875 C260.14665231 202.48350722 253.86090473 200.01443818 246.07421875 200.51171875 C237.77618787 201.7349847 231.81637872 205.57785903 226.76171875 212.2421875 C222.0133346 219.87102527 221.95340933 227.07619154 222.05859375 235.75390625 C222.10694497 241.84347441 221.94526823 247.92533682 221.76171875 254.01171875 C221.72776001 255.69467041 221.72776001 255.69467041 221.69311523 257.41162109 C221.45372449 264.68495529 220.93663531 270.21560271 216.01171875 275.88671875 C211.80762008 278.21239036 207.85582846 278.74123602 203.07421875 278.51171875 C199.57421875 277.07421875 199.57421875 277.07421875 197.07421875 275.51171875 C196.41421875 275.51171875 195.75421875 275.51171875 195.07421875 275.51171875 C195.07421875 274.85171875 195.07421875 274.19171875 195.07421875 273.51171875 C194.41421875 273.51171875 193.75421875 273.51171875 193.07421875 273.51171875 C192.94144531 272.3309375 192.80867188 271.15015625 192.671875 269.93359375 C192.49362895 268.37628613 192.31523582 266.81899533 192.13671875 265.26171875 C192.04970703 264.48441406 191.96269531 263.70710937 191.87304688 262.90625 C191.78603516 262.15214844 191.69902344 261.39804687 191.609375 260.62109375 C191.49154663 259.5842041 191.49154663 259.5842041 191.37133789 258.52636719 C191.13813711 256.52725142 191.13813711 256.52725142 190.47827148 254.75488281 C189.97855216 251.98061023 190.40740457 249.52487622 190.80532837 246.75598145 C191.28381702 242.76233088 191.23699863 238.76373628 191.2421875 234.74609375 C191.2455159 233.83144348 191.2488443 232.91679321 191.25227356 231.97442627 C191.25731055 230.04822284 191.25968289 228.12201079 191.25952148 226.19580078 C191.26170204 223.28402962 191.27987621 220.37264154 191.29882812 217.4609375 C191.91541252 196.96622083 191.91541252 196.96622083 183.0234375 179.31640625 C176.26188417 172.97531926 171.04958026 171.05293671 161.81640625 171.265625 C154.54900603 171.91782758 148.90184759 175.06154896 144.07421875 180.51171875 C139.59860214 187.17310161 137.9550867 192.33823 137.93237305 200.35644531 C137.92889862 201.03668259 137.92542419 201.71691986 137.92184448 202.41777039 C137.91450778 203.89151447 137.90915131 205.36526945 137.90555382 206.8390274 C137.8983611 209.17717836 137.88267292 211.51512274 137.86421204 213.85321045 C137.81188044 220.49993017 137.76380271 227.14653579 137.74829102 233.79345703 C137.73817127 237.86372527 137.70874707 241.93347118 137.66697121 246.00353241 C137.65471337 247.54872424 137.64953037 249.09399 137.65176964 250.63922882 C137.670606 267.88242709 137.670606 267.88242709 131.49052429 274.10675049 C127.01031271 278.008989 121.88916875 278.8300896 116.07421875 278.51171875 C110.26425831 276.79730419 106.20919765 273.9154851 102.96337891 268.74072266 C101.8120911 265.85460029 101.74903056 263.3893763 101.66015625 260.28515625 C101.62148438 259.08890625 101.5828125 257.89265625 101.54296875 256.66015625 C101.4965625 254.79230469 101.4965625 254.79230469 101.44921875 252.88671875 C101.39121094 251.00726562 101.39121094 251.00726562 101.33203125 249.08984375 C101.06406439 240.227797 101.07421875 231.37719938 101.07421875 222.51171875 C100.9504153 220.96812678 100.80405367 219.42619999 100.63671875 217.88671875 C100.51490234 216.72269531 100.51490234 216.72269531 100.390625 215.53515625 C100.16929339 213.44881694 100.16929339 213.44881694 99.07421875 211.51171875 C99.73421875 211.18171875 100.39421875 210.85171875 101.07421875 210.51171875 C101.15831178 206.30706749 101.20492322 202.29594554 100.51171875 198.13671875 C100.07421875 195.51171875 100.07421875 195.51171875 101.07421875 192.51171875 C100.75216132 190.17680236 100.41963726 187.84329367 100.07421875 185.51171875 C100.40421875 185.18171875 100.73421875 184.85171875 101.07421875 184.51171875 C101.01267952 173.17311607 99.84520986 164.70093738 92.046875 156.2734375 C87.30577639 152.03930785 81.26680636 149.34462715 74.88671875 149.44921875 C73.62859375 149.46984375 72.37046875 149.49046875 71.07421875 149.51171875 C70.74421875 150.17171875 70.41421875 150.83171875 70.07421875 151.51171875 C69.49542969 151.31191406 68.91664063 151.11210938 68.3203125 150.90625 C63.59249402 150.07579841 59.25490182 153.77035961 55.38671875 156.19921875 C50.17042401 161.41551349 47.17723393 167.78458933 46.97415161 175.13218689 C46.98038071 176.60890728 46.99215809 178.08561056 47.00830078 179.56225586 C47.01297363 180.37101166 47.01764648 181.17976746 47.02246094 182.01303101 C47.03295422 183.76834902 47.04561386 185.52365511 47.06018448 187.27894402 C47.08225908 190.06784651 47.09630721 192.85668039 47.10787964 195.64564514 C47.14140559 203.5754636 47.18270266 211.50517028 47.24560547 219.43481445 C47.28353734 224.28940605 47.30636561 229.14387997 47.31991196 233.9985981 C47.32790232 235.83837718 47.34141881 237.67814173 47.36084366 239.51783562 C47.62694045 265.18871371 47.62694045 265.18871371 41.88671875 273.13671875 C37.07012076 277.20406816 32.72231515 278.88218136 26.38671875 278.38671875 C21.26468561 277.55944879 18.27023097 275.87384378 14.82421875 271.94921875 C11.95436451 267.95192177 11.89855046 265.53891534 11.7578125 260.609375 C11.7370314 259.9076265 11.71625031 259.20587799 11.69483948 258.48286438 C11.62863915 256.1800939 11.56993644 253.87720382 11.51171875 251.57421875 C11.46812152 249.99234964 11.42450158 248.41048115 11.38085938 246.82861328 C11.0877858 235.69181728 10.99240878 224.5665616 11.11108398 213.42602539 C11.12377319 211.87129517 11.12377319 211.87129517 11.13671875 210.28515625 C11.15412109 208.93043213 11.15412109 208.93043213 11.171875 207.54833984 C11.30322363 205.51658085 11.30322363 205.51658085 10.07421875 204.51171875 C10.40670333 203.17817352 10.74024128 201.84489088 11.07421875 200.51171875 C11.15978986 198.72023049 11.19196139 196.92585003 11.18774414 195.13232422 C11.18766861 194.05796112 11.18759308 192.98359802 11.18751526 191.87667847 C11.18235397 190.72241364 11.17719269 189.5681488 11.171875 188.37890625 C11.17046005 187.19072296 11.1690451 186.00253967 11.16758728 184.77835083 C11.1619894 180.98111455 11.14944176 177.1839372 11.13671875 173.38671875 C11.13170308 170.82031335 11.12714029 168.25390703 11.12304688 165.6875 C11.11320303 160.05010308 11.098983 154.41273652 11.08094788 148.77536011 C11.07672305 147.35415083 11.07421875 145.93293431 11.07421875 144.51171875 C10.75943429 143.17388482 10.42834219 141.83968166 10.07421875 140.51171875 C10.40421875 140.51171875 10.73421875 140.51171875 11.07421875 140.51171875 C11.07421875 139.94662598 11.07421875 139.3815332 11.07421875 138.79931641 C11.07421875 108.47832977 11.07421875 108.47832977 11.10595703 103.4921875 C11.14220777 97.47219011 11.16514383 91.45220366 11.18408203 85.43212891 C11.19411794 82.83282847 11.2077496 80.23353926 11.22509766 77.63427734 C11.24947735 73.88506298 11.26073115 70.13599819 11.26953125 66.38671875 C11.27985382 65.23324951 11.29017639 64.07978027 11.30081177 62.89135742 C11.30222261 52.64377304 10.51619331 44.1025328 3.07421875 36.51171875 C-2.48688119 31.70244133 -7.71825136 30.70684646 -14.92578125 30.51171875 C-15.93640625 30.40859375 -16.94703125 30.30546875 -17.98828125 30.19921875 C-25.53223639 31.00176717 -30.58395526 34.55571487 -35.41796875 40.21875 Z " fill="#F9F9F9" transform="translate(430.92578125,375.48828125)"/>
<path d="M0 0 C3.85400341 2.13613367 5.87381309 4.34253124 7.8125 8.375 C8.7043144 13.91754536 8.95281888 19.29609838 8.92602539 24.90048218 C8.92617425 25.72105594 8.92632311 26.54162971 8.92647648 27.38706934 C8.92578606 30.11663424 8.91796235 32.8461305 8.91015625 35.57568359 C8.90823562 37.54090843 8.90677251 39.50613376 8.9057312 41.47135925 C8.90257652 45.6941049 8.89631734 49.91683041 8.88766479 54.13956833 C8.87411325 60.82193601 8.86824196 67.50429707 8.86352539 74.18667603 C8.85149327 89.57982084 8.82944622 104.97294825 8.80729675 120.36608124 C8.78709918 134.47200356 8.76903252 148.57791999 8.75908184 162.68385375 C8.75411054 169.32122618 8.74426715 175.95856787 8.73065186 182.59592795 C8.72317098 186.73181144 8.71987233 190.86769075 8.7176857 195.00358009 C8.71582012 196.91510711 8.71223209 198.82663338 8.70675278 200.73815346 C8.66728108 214.08539602 8.66728108 214.08539602 9.8125 227.375 C10.1425 227.045 10.4725 226.715 10.8125 226.375 C11.864375 225.6015625 11.864375 225.6015625 12.9375 224.8125 C15.24296413 222.85786737 17.01012583 221.06332423 18.9453125 218.78222656 C22.9666311 214.13963683 27.23258746 209.77558942 31.5625 205.421875 C32.37944336 204.59923157 33.19638672 203.77658813 34.03808594 202.92901611 C35.75446873 201.20324634 37.47226354 199.47887985 39.19140625 197.75585938 C41.81192886 195.12557327 44.42158814 192.48480628 47.03125 189.84375 C48.70767335 188.16080065 50.38473506 186.47848689 52.0625 184.796875 C52.83561523 184.01141296 53.60873047 183.22595093 54.40527344 182.41668701 C59.91552164 176.92885654 65.60342197 171.53918156 73.8125 171.375 C78.48336398 172.2378239 82.50172764 173.54036807 85.75 177.125 C88.35951392 181.23696133 90.21615333 184.54431718 89.50390625 189.5390625 C86.33909041 200.97957689 74.87254704 209.47803629 66.73046875 217.625 C65.46723845 218.89144823 64.20408151 220.15796964 62.94099426 221.42456055 C60.30951584 224.06199216 57.67601409 226.69738413 55.04125977 229.33154297 C51.65887498 232.71382535 48.2834678 236.10298222 44.90970898 239.49386597 C42.31126013 242.10339461 39.70831842 244.70840491 37.10405922 247.31213379 C35.85646376 248.56091169 34.61049501 249.8113169 33.36617088 251.06335449 C31.63575754 252.80350354 29.89919894 254.53727586 28.16088867 256.26953125 C27.64608444 256.78995499 27.13128021 257.31037872 26.60087585 257.84657288 C23.04082799 261.375 23.04082799 261.375 20.8125 261.375 C20.56032715 261.95693115 20.3081543 262.5388623 20.04833984 263.13842773 C18.66184306 265.64765275 17.13362727 267.20807379 15.0390625 269.16015625 C13.9253125 270.20333008 13.9253125 270.20333008 12.7890625 271.26757812 C12.01304687 271.98365234 11.23703125 272.69972656 10.4375 273.4375 C9.66921875 274.15744141 8.9009375 274.87738281 8.109375 275.61914062 C-1.95374768 284.99455855 -1.95374768 284.99455855 -8.375 285.75 C-18.27403624 284.7763243 -24.6710013 276.1544964 -31.1875 269.375 C-32.85169408 267.7058644 -34.51885623 266.03968721 -36.1875 264.375 C-37.2989707 263.26381447 -38.41028871 262.15247619 -39.52148438 261.04101562 C-40.12561157 260.43688843 -40.72973877 259.83276123 -41.35217285 259.21032715 C-59.2972819 241.2652181 -77.24239095 223.32010905 -95.1875 205.375 C-96.54137817 204.02378052 -96.54137817 204.02378052 -97.92260742 202.64526367 C-102.37743948 198.17986717 -105.4748203 194.85784578 -105.75 188.3125 C-105.42823007 182.42232265 -103.0436305 179.2841628 -99 175.125 C-95.18692924 172.75242264 -91.6772515 171.63864689 -87.1875 171.375 C-76.52275619 174.18151153 -68.65877367 184.76585309 -61.125 192.33984375 C-60.0829026 193.38381066 -59.04058091 194.42755372 -57.99804688 195.47108459 C-55.28005554 198.19285922 -52.5650831 200.91762523 -49.85076904 203.64306641 C-47.07032982 206.43381073 -44.28698971 209.22165871 -41.50390625 212.00976562 C-36.06229158 217.46204358 -30.62386897 222.91749109 -25.1875 228.375 C-23.90839486 224.53768457 -24.06661316 220.94070694 -24.09416199 216.94380188 C-24.09612983 216.07300293 -24.09809766 215.20220397 -24.10012513 214.30501717 C-24.10786841 211.37559162 -24.12273281 208.4462439 -24.13745117 205.5168457 C-24.14427895 203.42103729 -24.15060963 201.32522721 -24.15647888 199.22941589 C-24.16982693 194.70973281 -24.18597088 190.19007109 -24.20403099 185.67040443 C-24.23182716 178.52272895 -24.24886132 171.37505378 -24.26350403 164.2273407 C-24.26864821 161.78119752 -24.27380483 159.33505437 -24.27897358 156.88891125 C-24.28155914 155.66375219 -24.2841447 154.43859313 -24.28680861 153.17630804 C-24.32286986 136.53228088 -24.36820101 119.88832062 -24.43432617 103.24438477 C-24.47882345 92.02251368 -24.50908007 80.80070102 -24.52318364 69.57874936 C-24.53125808 63.63942182 -24.54677684 57.70031736 -24.57985497 51.76107216 C-24.61092407 46.17228318 -24.62338 40.58376232 -24.62163734 34.99489021 C-24.62433182 32.94544116 -24.63388553 30.8959877 -24.65086365 28.84660721 C-24.67306838 26.04444188 -24.67043906 23.24333225 -24.66178894 20.44111633 C-24.68028917 19.23014557 -24.68028917 19.23014557 -24.69916314 17.99471074 C-24.64513577 12.40979628 -23.39773912 8.00510363 -20.1875 3.375 C-13.8742097 -1.64986371 -7.58770881 -3.41163773 0 0 Z " fill="#F6F6F6" transform="translate(519.1875,102.625)"/>
<path d="M0 0 C0.66 0.33 1.32 0.66 2 1 C1.60167969 1.42410156 1.20335937 1.84820312 0.79296875 2.28515625 C-0.00173828 3.16494141 -0.00173828 3.16494141 -0.8125 4.0625 C-1.59560547 4.91521484 -1.59560547 4.91521484 -2.39453125 5.78515625 C-7.10812005 12.28784445 -7.42101431 17.99565153 -7.32470703 25.79443359 C-7.32356997 26.8724505 -7.32243292 27.95046741 -7.32126141 29.0611515 C-7.31410267 32.67377196 -7.28570372 36.28592222 -7.2578125 39.8984375 C-7.24915487 42.49804239 -7.24200704 45.09765269 -7.23625183 47.69726562 C-7.22223685 53.30822606 -7.1984207 58.91907193 -7.16836548 64.52996826 C-7.12135592 73.43222572 -7.098846 82.33445506 -7.08276367 91.23681641 C-7.08138881 91.98958571 -7.08001395 92.74235502 -7.07859743 93.51793551 C-7.07164355 97.37840773 -7.06508664 101.23888044 -7.05879402 105.09935379 C-7.05357481 108.25910219 -7.04767283 111.4188482 -7.04116631 114.57859421 C-6.97244171 147.98422198 -7.04129742 181.38867503 -7.23250961 214.79383278 C-7.24182713 216.42238994 -7.25113629 218.05094714 -7.26043701 219.67950439 C-7.26501915 220.48148628 -7.26960128 221.28346817 -7.27432227 222.10975254 C-7.30574369 227.76087582 -7.32839893 233.41199246 -7.34698486 239.06317139 C-7.36972236 245.96921215 -7.40256333 252.87510776 -7.44890219 259.78103232 C-7.47236311 263.31419632 -7.49123817 266.84722287 -7.49757957 270.38046265 C-7.50471876 274.22304859 -7.5350517 278.06525598 -7.56762695 281.90771484 C-7.56619249 283.02458364 -7.56475803 284.14145245 -7.56328011 285.29216576 C-7.63888514 291.54621908 -8.26841588 296.33558739 -11 302 C-13.1875 303.5 -13.1875 303.5 -15 304 C-14.35014885 303.0792934 -13.7002977 302.15858681 -13.03075409 301.20998001 C-10.18445991 296.18488928 -10.45190354 291.2903874 -10.50793457 285.64031982 C-10.50325558 284.50278897 -10.49857659 283.36525811 -10.49375582 282.19325662 C-10.48283047 278.38479157 -10.50031069 274.57698841 -10.51757812 270.76855469 C-10.51763482 268.03662665 -10.5116013 265.30472055 -10.50572205 262.57279968 C-10.49605116 256.69062871 -10.50049583 250.80860601 -10.5141449 244.92644501 C-10.53353474 236.40992003 -10.52705584 227.89356119 -10.51357108 219.37703183 C-10.49199604 205.54285028 -10.48527432 191.70870796 -10.49072266 177.87451172 C-10.49120361 176.63320532 -10.49120361 176.63320532 -10.49169427 175.36682203 C-10.4944061 168.65486392 -10.49783641 161.94290621 -10.50129986 155.23094845 C-10.50429447 149.3696233 -10.50700301 143.50829813 -10.50927734 137.64697266 C-10.50960285 136.82165939 -10.50992837 135.99634612 -10.51026374 135.14602336 C-10.51521196 121.36748363 -10.50450369 107.58899831 -10.48270559 93.81047559 C-10.47002981 85.31956426 -10.47142035 76.82887774 -10.49115646 68.33797869 C-10.50379581 62.51546489 -10.50227291 56.69306475 -10.48978293 50.87055102 C-10.48309239 47.51510101 -10.4851002 44.16025474 -10.5003643 40.8047924 C-10.51601218 37.15878193 -10.50698063 33.51361017 -10.49206543 29.86761475 C-10.50255433 28.81885627 -10.51304322 27.77009778 -10.52384996 26.68955874 C-10.42652927 15.96732622 -7.51596586 7.68678326 0 0 Z " fill="#CDCDCD" transform="translate(399,410)"/>
<path d="M0 0 C0.66 0.33 1.32 0.66 2 1 C-5.68329322 5.71328071 -12.72222996 8.54174331 -21.66059875 9.70422363 C-23.02863017 9.88906335 -23.02863017 9.88906335 -24.42429858 10.0776372 C-34.52672895 11.33997448 -44.57613964 11.43726046 -54.74291992 11.41992188 C-56.82516426 11.42728608 -58.90740455 11.435879 -60.98963928 11.44558716 C-66.57624004 11.46755391 -72.16269229 11.47074683 -77.74933028 11.46883965 C-82.43851473 11.46871889 -87.12766888 11.47732455 -91.81684476 11.48561716 C-102.88662532 11.50475819 -113.95633049 11.50776768 -125.02612305 11.50097656 C-136.3978702 11.49432828 -147.76929364 11.51725356 -159.14097518 11.55429029 C-168.9564795 11.58508358 -178.77188013 11.59633734 -188.58743173 11.59245348 C-194.42732152 11.59039759 -200.26695856 11.5956861 -206.10680199 11.62034607 C-211.59747966 11.64277341 -217.08763274 11.64060357 -222.57831383 11.62041855 C-224.57840898 11.61703772 -226.57854064 11.62196919 -228.57858658 11.63640213 C-241.38752306 11.72237277 -252.9254752 10.52495017 -265 6 C-265.66 5.34 -266.32 4.68 -267 4 C-266.40832031 4.13277344 -265.81664062 4.26554688 -265.20703125 4.40234375 C-264.41683594 4.57894531 -263.62664062 4.75554688 -262.8125 4.9375 C-262.03519531 5.11152344 -261.25789063 5.28554688 -260.45703125 5.46484375 C-259.64621094 5.64144531 -258.83539063 5.81804688 -258 6 C-257.31814384 6.1730022 -256.63628769 6.34600439 -255.93376923 6.52424908 C-251.81573767 7.19204438 -247.76811151 7.14803676 -243.60266113 7.14717102 C-242.65201011 7.15084771 -241.70135909 7.1545244 -240.72190046 7.1583125 C-237.53399587 7.16933205 -234.3461239 7.17319028 -231.15820312 7.17700195 C-228.8731679 7.18326799 -226.58813368 7.18991491 -224.30310059 7.19691467 C-216.79582426 7.21794362 -209.28854776 7.22831708 -201.78125 7.23828125 C-199.19457488 7.24232946 -196.60789987 7.24644641 -194.02122498 7.25063133 C-183.2586414 7.2674993 -172.49606152 7.28213304 -161.7334671 7.28938007 C-158.9427541 7.29128978 -156.1520411 7.29321014 -153.36132812 7.29516602 C-152.66776181 7.29564976 -151.9741955 7.2961335 -151.25961202 7.2966319 C-140.03630463 7.30492373 -128.81310411 7.33024738 -117.58984333 7.36274669 C-106.05105866 7.39588552 -94.51234425 7.41350277 -82.97351027 7.41702431 C-76.50143892 7.41937152 -70.02953652 7.42828923 -63.55751038 7.45348549 C-57.46388173 7.47682517 -51.37053255 7.48097556 -45.27687073 7.47072411 C-43.04731312 7.47023005 -40.81774147 7.47651184 -38.58822632 7.49028015 C-25.6866338 7.56545877 -14.4585987 7.46532892 -2.7846756 1.30261707 C-1.86573265 0.87275344 -0.9467897 0.4428898 0 0 Z " fill="#C2C3C1" transform="translate(661,941)"/>
<path d="M0 0 C0 3.22910914 -0.55120114 4.19501347 -1.98217773 6.99291992 C-4.95842783 14.26930065 -4.46287903 21.6725457 -4.33122444 29.40160561 C-4.28426206 32.16591521 -4.26239658 34.92948529 -4.2464447 37.69413757 C-4.20778051 43.5672505 -4.13597267 49.43973703 -4.0625 55.3125 C-3.98169267 62.1151092 -3.91486665 68.91755852 -3.87112236 75.72051048 C-3.84821789 78.42203695 -3.80614366 81.12278822 -3.76271057 83.8240509 C-3.51107928 106.75660333 -3.51107928 106.75660333 -9.6875 115.125 C-13.59249315 118.99152031 -17.82839957 120.92574848 -23.3359375 121.0546875 C-27.91238989 120.7049918 -31.24232108 119.78795533 -35 117 C-34.01 116.505 -34.01 116.505 -33 116 C-32.40960938 116.30164063 -31.81921875 116.60328125 -31.2109375 116.9140625 C-27.0692727 118.94830775 -22.49857696 118.53461349 -18 118 C-12.85146319 115.4257316 -9.817992 112.45397599 -8 107 C-7.89494234 104.14719555 -7.84589252 101.3178175 -7.84228516 98.46459961 C-7.83720444 97.59264954 -7.83212372 96.72069946 -7.82688904 95.82232666 C-7.81618345 93.9267725 -7.80756401 92.03120568 -7.80076981 90.13563347 C-7.78897143 87.12913829 -7.76951339 84.12278614 -7.74765015 81.11634827 C-7.68608482 72.56727916 -7.6321053 64.01822299 -7.59863281 55.46899414 C-7.57760664 50.23936713 -7.54223417 45.00999831 -7.49787521 39.78051949 C-7.48377167 37.79318865 -7.47500562 35.80581209 -7.47182083 33.81843376 C-7.4291619 9.73476387 -7.4291619 9.73476387 0 0 Z " fill="#BEBEBE" transform="translate(483,534)"/>
<path d="M0 0 C9.07656417 7.77991215 12.20780408 19.55019213 13.17904282 31.13573456 C13.47974766 36.70959678 13.49146382 42.2866372 13.51171875 47.8671875 C13.52860603 49.64081023 13.54676155 51.41442128 13.56611633 53.1880188 C13.61318355 57.80739694 13.64327067 62.42672777 13.66955566 67.04626465 C13.69958223 71.77963607 13.74603532 76.51284499 13.79101562 81.24609375 C13.87655489 90.49731005 13.94411702 99.74856027 14 109 C14.67546875 108.59007812 15.3509375 108.18015625 16.046875 107.7578125 C16.93890625 107.21898437 17.8309375 106.68015625 18.75 106.125 C19.63171875 105.59132813 20.5134375 105.05765625 21.421875 104.5078125 C25.59201666 102.06891147 28.09212455 100.72734025 33 101 C29.82558519 103.11627654 26.53319012 104.80653339 23.125 106.5 C22.51269531 106.80808594 21.90039062 107.11617188 21.26953125 107.43359375 C17.89622226 109.11663657 14.50760374 110.62364598 11 112 C10.99635437 110.93892532 10.99270874 109.87785065 10.98895264 108.78462219 C10.95185512 98.73736514 10.89392267 88.69041041 10.81609726 78.64338398 C10.77675148 73.47928493 10.74450009 68.31535311 10.72900391 63.15112305 C10.71375192 58.15827288 10.67915655 53.16588288 10.63169098 48.17323875 C10.61696473 46.27771209 10.60896407 44.3821197 10.60811615 42.48653603 C10.5951457 28.0167588 9.38272087 16.34366943 1.171875 3.92578125 C0 2 0 2 0 0 Z " fill="#BBBBBC" transform="translate(460,395)"/>
<path d="M0 0 C4.78006646 3.62625732 5.89258371 8.34139822 7 14 C7.3622675 18.75169698 7.42064507 23.47477385 7.41069031 28.2385807 C7.40616015 30.59757024 7.42035274 32.95583011 7.43908691 35.31474304 C7.48180735 41.16415871 7.49313196 47.01355375 7.50531006 52.86309814 C7.51684987 57.8281908 7.54041472 62.79294387 7.58000183 67.75789452 C7.59353377 70.07623608 7.58941104 72.39411336 7.58459473 74.71247864 C7.59393513 76.13555491 7.6041039 77.55862606 7.61523438 78.98168945 C7.61728882 80.21949661 7.61934326 81.45730377 7.62145996 82.73262024 C8.03069606 86.26495395 9.03516903 88.08945905 11 91 C11 91.66 11 92.32 11 93 C15.79386528 95.55672815 20.7070184 95.67010504 26 95 C30.61710543 92.90131571 32.49987028 90.74128919 34.38882446 86.0697937 C35.52725881 82.21439687 35.48206404 78.34202132 35.51171875 74.34765625 C35.52966995 73.44752304 35.54762115 72.54738983 35.56611633 71.61997986 C35.61995245 68.76753309 35.65402888 65.91525107 35.6875 63.0625 C35.72069668 61.11911783 35.7551885 59.17575733 35.79101562 57.23242188 C35.87566341 52.48840064 35.94260136 47.744426 36 43 C36.33 43 36.66 43 37 43 C37.75612577 48.23471686 38.2063366 52.77254141 37 58 C37.99 58.495 37.99 58.495 39 59 C38.34 59 37.68 59 37 59 C37.01571045 59.75095947 37.0314209 60.50191895 37.04760742 61.27563477 C37.11027758 64.70451211 37.14909261 68.13326855 37.1875 71.5625 C37.21263672 72.74392578 37.23777344 73.92535156 37.26367188 75.14257812 C37.33209885 83.28538802 37.0140456 88.61838787 31.4375 94.875 C27.40689974 97.88544833 22.92783866 98.42324995 18 98 C15.01082672 96.9586106 12.72548641 95.66557503 10 94 C10 93.34 10 92.68 10 92 C9.34 92 8.68 92 8 92 C6.17787797 88.06067545 5.67087278 84.69487918 5.4375 80.375 C5.24614712 76.96188946 5.08254199 74.24762596 4 71 C4.22785452 69.091181 4.46107036 67.18272829 4.73110962 65.27941895 C5.20374503 61.27282675 5.16276394 57.26435634 5.16796875 53.234375 C5.17129715 52.31972473 5.17462555 51.40507446 5.17805481 50.46270752 C5.1830918 48.53650409 5.18546414 46.61029204 5.18530273 44.68408203 C5.18748329 41.77231087 5.20565746 38.86092279 5.22460938 35.94921875 C5.61613929 18.35662399 5.61613929 18.35662399 0 2 C0 1.34 0 0.68 0 0 Z " fill="#B3B3B3" transform="translate(616,557)"/>
<path d="M0 0 C0.33 0 0.66 0 1 0 C1.00808685 1.10167511 1.01617371 2.20335022 1.02450562 3.33840942 C1.10202727 13.72624099 1.1897819 24.11394255 1.28752708 34.50160408 C1.3374494 39.84186333 1.38377992 45.18210318 1.421875 50.52246094 C1.45877897 55.67725465 1.50515304 60.83188453 1.55806351 65.98653793 C1.57658025 67.95205686 1.59169823 69.91761088 1.60334396 71.88318253 C1.62025287 74.63860054 1.6492993 77.39364555 1.68115234 80.14892578 C1.68331253 80.95956985 1.68547272 81.77021393 1.68769836 82.60542297 C1.75420854 87.11614493 2.29762511 90.74992024 4 95 C0.22261219 91.38684644 -0.13681207 89.2611084 -0.28125 84.0390625 C-0.33732422 82.24855469 -0.33732422 82.24855469 -0.39453125 80.421875 C-0.42933594 79.16890625 -0.46414063 77.9159375 -0.5 76.625 C-0.56893274 74.15873959 -0.64168688 71.69258225 -0.71875 69.2265625 C-0.74904297 68.12908691 -0.77933594 67.03161133 -0.81054688 65.90087891 C-0.97147858 63.43671579 -1.38097976 61.37090113 -2 59 C-1.7525 58.071875 -1.7525 58.071875 -1.5 57.125 C-0.82821719 54.90450583 -0.82821719 54.90450583 -1.5 52.25 C-1.93592658 49.41647724 -1.92034032 47.75322912 -1.5 45 C-0.95703096 41.43676568 -1.36758121 38.55735569 -2 35 C-1.835 34.23300781 -1.67 33.46601562 -1.5 32.67578125 C-0.94677588 29.71516778 -1.13851532 27.35724863 -1.5 24.375 C-1.90773638 20.99264137 -2.09065405 19.27196214 -1 16 C-1.32205743 13.66508361 -1.65458149 11.33157492 -2 9 C-1.67 8.67 -1.34 8.34 -1 8 C-0.76924918 6.65252916 -0.58846937 5.29622435 -0.4375 3.9375 C-0.293125 2.638125 -0.14875 1.33875 0 0 Z " fill="#BFBFBF" transform="translate(532,552)"/>
<path d="M0 0 C0.33 0 0.66 0 1 0 C1.33 23.76 1.66 47.52 2 72 C6.95 69.36 11.9 66.72 17 64 C18.65 64 20.3 64 22 64 C18.82558519 66.11627654 15.53319012 67.80653339 12.125 69.5 C11.51269531 69.80808594 10.90039062 70.11617188 10.26953125 70.43359375 C6.88150864 72.12397762 3.52443614 73.59022555 0 75 C0 50.25 0 25.5 0 0 Z " fill="#CFD0CF" transform="translate(471,432)"/>
<path d="M0 0 C2 2 2 2 2.22705078 4.79736328 C2.21657715 5.95993652 2.20610352 7.12250977 2.1953125 8.3203125 C2.18886719 9.57714844 2.18242188 10.83398438 2.17578125 12.12890625 C2.15902344 13.44761719 2.14226563 14.76632812 2.125 16.125 C2.11496983 17.46483721 2.10584404 18.80468152 2.09765625 20.14453125 C2.07402075 23.42986573 2.04107234 26.71484465 2 30 C-0.89011985 27.10988015 -0.84668589 23.91647855 -1 20 C-0.77784838 18.09584329 -0.55330179 16.19103714 -0.2578125 14.296875 C0.274312 9.55612943 0.07145599 4.76373258 0 0 Z " fill="#C2C2C2" transform="translate(621,608)"/>
<path d="M0 0 C8.28152371 0.26858996 15.17172319 2.60674123 21.375 8.25 C21.375 9.24 21.375 10.23 21.375 11.25 C20.86710937 10.84007812 20.35921875 10.43015625 19.8359375 10.0078125 C19.14757812 9.46898437 18.45921875 8.93015625 17.75 8.375 C17.07710938 7.84132813 16.40421875 7.30765625 15.7109375 6.7578125 C10.90237187 3.65395575 6.13220471 2.96982886 0.5 2.625 C-0.65242188 2.55023438 -1.80484375 2.47546875 -2.9921875 2.3984375 C-4.29542969 2.32496094 -4.29542969 2.32496094 -5.625 2.25 C-3.625 0.25 -3.625 0.25 0 0 Z " fill="#BCBCBB" transform="translate(414.625,403.75)"/>
<path d="M0 0 C0 0.33 0 0.66 0 1 C-2.97851562 1.29296875 -2.97851562 1.29296875 -5.95703125 1.5859375 C-8.29988142 1.92665391 -8.29988142 1.92665391 -11 4 C-11 3.34 -11 2.68 -11 2 C-12.58420129 2.62279669 -14.16732531 3.24833401 -15.75 3.875 C-16.63171875 4.22304688 -17.5134375 4.57109375 -18.421875 4.9296875 C-20.6740248 5.8646709 -22.83649459 6.87780794 -25 8 C-17.95626846 -0.14431459 -10.26134929 -0.46176072 0 0 Z " fill="#BCBBBC" transform="translate(511,524)"/>
<path d="M0 0 C0.66 0 1.32 0 2 0 C2 4.95 2 9.9 2 15 C1.34 14.67 0.68 14.34 0 14 C-1.10850248 9.33465044 -1.34383934 4.62877994 0 0 Z " fill="#CFD0D0" transform="translate(531,582)"/>
<path d="M0 0 C2.475 0.495 2.475 0.495 5 1 C4.01 1.66 3.02 2.32 2 3 C2 2.34 2 1.68 2 1 C1.34 0.67 0.68 0.34 0 0 Z " fill="#F6F7F8" transform="translate(601,549)"/>
<path d="M0 0 C1.98 0 3.96 0 6 0 C6 0.33 6 0.66 6 1 C4.02 1 2.04 1 0 1 C0 0.67 0 0.34 0 0 Z " fill="#F9F9F9" transform="translate(504,526)"/>
<path d="M0 0 C0.33 0 0.66 0 1 0 C1 1.65 1 3.3 1 5 C0.67 5 0.34 5 0 5 C0 3.35 0 1.7 0 0 Z " fill="#F9F9FA" transform="translate(440,497)"/>
<path d="M0 0 C0.99 1.485 0.99 1.485 2 3 C1.34 3 0.68 3 0 3 C0 2.01 0 1.02 0 0 Z " fill="#E0E1E1" transform="translate(363,916)"/>
<path d="M0 0 C4 1 4 1 4 1 Z " fill="#EDEDED" transform="translate(297,593)"/>
<path d="M0 0 C4 1 4 1 4 1 Z " fill="#F4F4F4" transform="translate(508,492)"/>
<path d="M0 0 C0.66 0.66 1.32 1.32 2 2 C1.34 2 0.68 2 0 2 C0 1.34 0 0.68 0 0 Z " fill="#F7F7F7" transform="translate(404,914)"/>
<path d="" fill="#E0E2E2" transform="translate(0,0)"/>
<path d="M0 0 C0.99 0.495 0.99 0.495 2 1 C1.01 1.495 1.01 1.495 0 2 C0 1.34 0 0.68 0 0 Z " fill="#F3F2F1" transform="translate(648,912)"/>
<path d="M0 0 C3 1 3 1 3 1 Z " fill="#EDEDEE" transform="translate(371,718)"/>
<path d="" fill="#E8E9E9" transform="translate(0,0)"/>
<path d="M0 0 C0.66 0.66 1.32 1.32 2 2 C1.34 2 0.68 2 0 2 C0 1.34 0 0.68 0 0 Z " fill="#F5F6F5" transform="translate(352,698)"/>
<path d="" fill="#E5E6E6" transform="translate(0,0)"/>
<path d="" fill="#E9EBEA" transform="translate(0,0)"/>
<path d="" fill="#E7E7E8" transform="translate(0,0)"/>
<path d="M0 0 C0.66 0.66 1.32 1.32 2 2 C1.34 2 0.68 2 0 2 C0 1.34 0 0.68 0 0 Z " fill="#F9FBF9" transform="translate(320,648)"/>
<path d="" fill="#F8F8F8" transform="translate(0,0)"/>
<path d="" fill="#F5F5F5" transform="translate(0,0)"/>
<path d="" fill="#F8F8F8" transform="translate(0,0)"/>
<path d="" fill="#E4E5E5" transform="translate(0,0)"/>
<path d="M0 0 C0.66 0.66 1.32 1.32 2 2 C1.34 2 0.68 2 0 2 C0 1.34 0 0.68 0 0 Z " fill="#F6F6F6" transform="translate(688,579)"/>
<path d="" fill="#F9FAF9" transform="translate(0,0)"/>
<path d="" fill="#F8F9F8" transform="translate(0,0)"/>
<path d="M0 0 C0.33 0.66 0.66 1.32 1 2 C0.34 1.67 -0.32 1.34 -1 1 C-0.67 0.67 -0.34 0.34 0 0 Z " fill="#F0EFEE" transform="translate(514,388)"/>
<path d="M0 0 C2 1 2 1 2 1 Z " fill="#E5E7E8" transform="translate(403,950)"/>
<path d="" fill="#E1E4E2" transform="translate(0,0)"/>
<path d="" fill="#F4F4F4" transform="translate(0,0)"/>
<path d="M0 0 C2 1 2 1 2 1 Z " fill="#EAEAEA" transform="translate(699,861)"/>
<path d="" fill="#F4F4F3" transform="translate(0,0)"/>
<path d="" fill="#E9E8E9" transform="translate(0,0)"/>
<path d="" fill="#ECECEE" transform="translate(0,0)"/>
<path d="" fill="#E8E8EA" transform="translate(0,0)"/>
<path d="" fill="#E9E9EA" transform="translate(0,0)"/>
<path d="" fill="#F6F7F6" transform="translate(0,0)"/>
<path d="" fill="#ECEDED" transform="translate(0,0)"/>
<path d="" fill="#E6E7E6" transform="translate(0,0)"/>
<path d="" fill="#F3F6F5" transform="translate(0,0)"/>
<path d="" fill="#EEEFEF" transform="translate(0,0)"/>
<path d="" fill="#EBEBEC" transform="translate(0,0)"/>
<path d="" fill="#E8E7E9" transform="translate(0,0)"/>
<path d="" fill="#F8F8F7" transform="translate(0,0)"/>
<path d="" fill="#E6E8E7" transform="translate(0,0)"/>
<path d="" fill="#FAFAF9" transform="translate(0,0)"/>
<path d="" fill="#F6F6F6" transform="translate(0,0)"/>
<path d="" fill="#E8E7E6" transform="translate(0,0)"/>
<path d="" fill="#F8F9F7" transform="translate(0,0)"/>
<path d="" fill="#F9F9F8" transform="translate(0,0)"/>
<path d="" fill="#F6F6F5" transform="translate(0,0)"/>
<path d="" fill="#F7FBFA" transform="translate(0,0)"/>
<path d="M0 0 C2 1 2 1 2 1 Z " fill="#E9E9E9" transform="translate(644,654)"/>
<path d="M0 0 C2 1 2 1 2 1 Z " fill="#E7E8E9" transform="translate(451,654)"/>
<path d="M0 0 C2 1 2 1 2 1 Z " fill="#E0DFE0" transform="translate(539,653)"/>
<path d="" fill="#EBECEC" transform="translate(0,0)"/>
<path d="M0 0 C2 1 2 1 2 1 Z " fill="#F7F5F4" transform="translate(304,628)"/>
<path d="" fill="#F8F7F7" transform="translate(0,0)"/>
<path d="" fill="#F6F5F5" transform="translate(0,0)"/>
<path d="" fill="#F9F9F9" transform="translate(0,0)"/>
<path d="" fill="#F9F8F7" transform="translate(0,0)"/>
<path d="" fill="#F9FAF9" transform="translate(0,0)"/>
<path d="" fill="#DAD9DA" transform="translate(0,0)"/>
<path d="M0 0 C2 1 2 1 2 1 Z " fill="#F8F7FA" transform="translate(690,581)"/>
<path d="M0 0 C2 1 2 1 2 1 Z " fill="#F6F7F8" transform="translate(606,551)"/>
<path d="M0 0 C2 1 2 1 2 1 Z " fill="#E9E8EA" transform="translate(694,545)"/>
<path d="M0 0 C2 1 2 1 2 1 Z " fill="#FAF9F9" transform="translate(518,530)"/>
<path d="" fill="#F9FAFA" transform="translate(0,0)"/>
<path d="M0 0 C2 1 2 1 2 1 Z " fill="#F8F9F8" transform="translate(569,520)"/>
<path d="M0 0 C2 1 2 1 2 1 Z " fill="#E8E9EB" transform="translate(606,515)"/>
<path d="" fill="#EDEEEE" transform="translate(0,0)"/>
<path d="M0 0 C2 1 2 1 2 1 Z " fill="#EFF0EF" transform="translate(590,514)"/>
<path d="" fill="#F6F8F8" transform="translate(0,0)"/>
<path d="" fill="#FAF9F8" transform="translate(0,0)"/>
<path d="" fill="#F6F7F7" transform="translate(0,0)"/>
<path d="" fill="#F7F6F7" transform="translate(0,0)"/>
<path d="M0 0 C2 1 2 1 2 1 Z " fill="#F9F9F8" transform="translate(420,407)"/>
<path d="M0 0 C2 1 2 1 2 1 Z " fill="#F2F1F0" transform="translate(502,387)"/>
<path d="M0 0 C2 1 2 1 2 1 Z " fill="#E9E9E8" transform="translate(391,377)"/>
<path d="" fill="#070807" transform="translate(0,0)"/>
<path d="" fill="#E7E8E6" transform="translate(0,0)"/>
<path d="" fill="#E7E6E6" transform="translate(0,0)"/>
<path d="" fill="#E5E5E4" transform="translate(0,0)"/>
<path d="" fill="#E0E2E1" transform="translate(0,0)"/>
<path d="" fill="#E3E4E4" transform="translate(0,0)"/>
<path d="" fill="#E1E0DF" transform="translate(0,0)"/>
<path d="" fill="#DFDFDE" transform="translate(0,0)"/>
<path d="" fill="#DADBDB" transform="translate(0,0)"/>
<path d="" fill="#E4E4E3" transform="translate(0,0)"/>
<path d="" fill="#F5F5F3" transform="translate(0,0)"/>
<path d="" fill="#F6F6F5" transform="translate(0,0)"/>
<path d="" fill="#F5F6F6" transform="translate(0,0)"/>
<path d="" fill="#F7F8F7" transform="translate(0,0)"/>
<path d="" fill="#FAF9FB" transform="translate(0,0)"/>
<path d="" fill="#F6F5F4" transform="translate(0,0)"/>
<path d="" fill="#F7F9F8" transform="translate(0,0)"/>
<path d="" fill="#F0F0EE" transform="translate(0,0)"/>
<path d="" fill="#F3EEF0" transform="translate(0,0)"/>
<path d="" fill="#EAECEB" transform="translate(0,0)"/>
<path d="" fill="#E5E8E7" transform="translate(0,0)"/>
<path d="" fill="#EFF1EF" transform="translate(0,0)"/>
<path d="" fill="#F1F0EF" transform="translate(0,0)"/>
<path d="" fill="#E6E8E8" transform="translate(0,0)"/>
<path d="" fill="#EDEDED" transform="translate(0,0)"/>
<path d="" fill="#ECEDEC" transform="translate(0,0)"/>
<path d="" fill="#ECECEB" transform="translate(0,0)"/>
<path d="" fill="#EBE8EA" transform="translate(0,0)"/>
<path d="" fill="#E9E9E9" transform="translate(0,0)"/>
<path d="" fill="#F0F1F0" transform="translate(0,0)"/>
<path d="" fill="#EFEFEE" transform="translate(0,0)"/>
<path d="" fill="#F3F2F2" transform="translate(0,0)"/>
<path d="" fill="#F2F4F3" transform="translate(0,0)"/>
<path d="" fill="#F4F3F4" transform="translate(0,0)"/>
<path d="" fill="#EAE9EA" transform="translate(0,0)"/>
<path d="" fill="#F4F3F5" transform="translate(0,0)"/>
<path d="" fill="#E8E8E7" transform="translate(0,0)"/>
<path d="" fill="#E8E8E7" transform="translate(0,0)"/>
<path d="" fill="#F4F2F2" transform="translate(0,0)"/>
<path d="" fill="#E9E7E7" transform="translate(0,0)"/>
<path d="" fill="#F0F1F0" transform="translate(0,0)"/>
<path d="" fill="#E9EBEB" transform="translate(0,0)"/>
<path d="" fill="#EAEAEA" transform="translate(0,0)"/>
<path d="" fill="#E9E9E8" transform="translate(0,0)"/>
<path d="" fill="#F2EFF1" transform="translate(0,0)"/>
<path d="" fill="#F5F6F6" transform="translate(0,0)"/>
<path d="" fill="#E5E6E5" transform="translate(0,0)"/>
<path d="" fill="#E7E6E5" transform="translate(0,0)"/>
<path d="" fill="#E6E5E5" transform="translate(0,0)"/>
<path d="" fill="#E5E5E4" transform="translate(0,0)"/>
<path d="" fill="#F1F1F0" transform="translate(0,0)"/>
<path d="" fill="#F6F7F5" transform="translate(0,0)"/>
<path d="" fill="#E9E7E7" transform="translate(0,0)"/>
<path d="" fill="#ECEDEC" transform="translate(0,0)"/>
<path d="" fill="#F3F4F3" transform="translate(0,0)"/>
<path d="" fill="#E5E7E6" transform="translate(0,0)"/>
<path d="" fill="#E6E8E7" transform="translate(0,0)"/>
<path d="" fill="#F6F5F5" transform="translate(0,0)"/>
<path d="" fill="#E5E4E4" transform="translate(0,0)"/>
<path d="" fill="#F3F1F2" transform="translate(0,0)"/>
<path d="" fill="#F0F3F0" transform="translate(0,0)"/>
<path d="" fill="#EEEDEC" transform="translate(0,0)"/>
<path d="" fill="#F4F5F4" transform="translate(0,0)"/>
<path d="" fill="#E7E7E7" transform="translate(0,0)"/>
<path d="" fill="#ECEDEC" transform="translate(0,0)"/>
<path d="" fill="#F5F5F4" transform="translate(0,0)"/>
<path d="" fill="#E7E6E8" transform="translate(0,0)"/>
<path d="" fill="#EDEDED" transform="translate(0,0)"/>
<path d="" fill="#F6F6F4" transform="translate(0,0)"/>
<path d="" fill="#F2F2F2" transform="translate(0,0)"/>
<path d="" fill="#E5E3E5" transform="translate(0,0)"/>
<path d="" fill="#EBEBED" transform="translate(0,0)"/>
<path d="" fill="#F5F5F6" transform="translate(0,0)"/>
<path d="" fill="#EBEBED" transform="translate(0,0)"/>
<path d="" fill="#E6E5E8" transform="translate(0,0)"/>
<path d="" fill="#F3F5F4" transform="translate(0,0)"/>
<path d="" fill="#E6E7E6" transform="translate(0,0)"/>
<path d="" fill="#F5F5F6" transform="translate(0,0)"/>
<path d="" fill="#EAE8E8" transform="translate(0,0)"/>
<path d="" fill="#EAEDEC" transform="translate(0,0)"/>
<path d="" fill="#ECECEC" transform="translate(0,0)"/>
<path d="" fill="#E9EBEC" transform="translate(0,0)"/>
<path d="" fill="#E6E4E8" transform="translate(0,0)"/>
<path d="" fill="#EFF0F0" transform="translate(0,0)"/>
<path d="" fill="#F8F7F9" transform="translate(0,0)"/>
<path d="" fill="#FAF9F8" transform="translate(0,0)"/>
<path d="" fill="#E4E4E3" transform="translate(0,0)"/>
<path d="" fill="#F9F9F9" transform="translate(0,0)"/>
<path d="" fill="#F8F8F8" transform="translate(0,0)"/>
<path d="" fill="#E6E7E6" transform="translate(0,0)"/>
<path d="" fill="#EDECEB" transform="translate(0,0)"/>
<path d="" fill="#E4E6E3" transform="translate(0,0)"/>
<path d="" fill="#FBFAFA" transform="translate(0,0)"/>
<path d="" fill="#FBFCFB" transform="translate(0,0)"/>
<path d="" fill="#F5F3F4" transform="translate(0,0)"/>
<path d="" fill="#EDEDEF" transform="translate(0,0)"/>
<path d="" fill="#E8E8E9" transform="translate(0,0)"/>
<path d="" fill="#ECEBEA" transform="translate(0,0)"/>
<path d="" fill="#DFE0E1" transform="translate(0,0)"/>
<path d="" fill="#DDDFE0" transform="translate(0,0)"/>
<path d="" fill="#FBFAF9" transform="translate(0,0)"/>
<path d="" fill="#FAFAF9" transform="translate(0,0)"/>
<path d="" fill="#EAEBE9" transform="translate(0,0)"/>
<path d="" fill="#F7F9F9" transform="translate(0,0)"/>
<path d="" fill="#E7E6E9" transform="translate(0,0)"/>
<path d="" fill="#EFF1F1" transform="translate(0,0)"/>
<path d="" fill="#E5E4E5" transform="translate(0,0)"/>
<path d="" fill="#E8E9EB" transform="translate(0,0)"/>
<path d="" fill="#E6E7E7" transform="translate(0,0)"/>
<path d="" fill="#F3F3F2" transform="translate(0,0)"/>
<path d="" fill="#F6F5F6" transform="translate(0,0)"/>
<path d="" fill="#FAFAF8" transform="translate(0,0)"/>
<path d="" fill="#F3F2F3" transform="translate(0,0)"/>
<path d="" fill="#F1F3F3" transform="translate(0,0)"/>
<path d="" fill="#F5F7F9" transform="translate(0,0)"/>
<path d="" fill="#F8F8F6" transform="translate(0,0)"/>
<path d="" fill="#F8F6F6" transform="translate(0,0)"/>
<path d="" fill="#F9F9F8" transform="translate(0,0)"/>
<path d="" fill="#F8F8F7" transform="translate(0,0)"/>
<path d="" fill="#FAFDF9" transform="translate(0,0)"/>
<path d="" fill="#FAFAF9" transform="translate(0,0)"/>
<path d="" fill="#E6E6E5" transform="translate(0,0)"/>
<path d="" fill="#F1F3F5" transform="translate(0,0)"/>
<path d="" fill="#E5E6E8" transform="translate(0,0)"/>
<path d="" fill="#FAFBFA" transform="translate(0,0)"/>
<path d="" fill="#FBFAF9" transform="translate(0,0)"/>
<path d="" fill="#F2F2F1" transform="translate(0,0)"/>
<path d="" fill="#E8E8E9" transform="translate(0,0)"/>
<path d="" fill="#E6E7E6" transform="translate(0,0)"/>
<path d="" fill="#EEEEEE" transform="translate(0,0)"/>
<path d="" fill="#E2E3E1" transform="translate(0,0)"/>
<path d="" fill="#F9F9F9" transform="translate(0,0)"/>
<path d="" fill="#E8EAEA" transform="translate(0,0)"/>
<path d="" fill="#E9E7E9" transform="translate(0,0)"/>
<path d="" fill="#EDEDEF" transform="translate(0,0)"/>
<path d="" fill="#F9F9F9" transform="translate(0,0)"/>
<path d="" fill="#F8F7F8" transform="translate(0,0)"/>
<path d="" fill="#F9FAFA" transform="translate(0,0)"/>
<path d="" fill="#FAFBF8" transform="translate(0,0)"/>
<path d="" fill="#FBFBFA" transform="translate(0,0)"/>
<path d="" fill="#FAF8FB" transform="translate(0,0)"/>
<path d="" fill="#E3E3E2" transform="translate(0,0)"/>
<path d="" fill="#E4E3E4" transform="translate(0,0)"/>
<path d="" fill="#F7F9FB" transform="translate(0,0)"/>
<path d="" fill="#F5F6F6" transform="translate(0,0)"/>
<path d="" fill="#E4E6E6" transform="translate(0,0)"/>
<path d="" fill="#F9FAF9" transform="translate(0,0)"/>
<path d="" fill="#FBFBFA" transform="translate(0,0)"/>
<path d="" fill="#F8F8F8" transform="translate(0,0)"/>
<path d="" fill="#F9FAF9" transform="translate(0,0)"/>
<path d="" fill="#FBFCFB" transform="translate(0,0)"/>
<path d="" fill="#FBFAFB" transform="translate(0,0)"/>
<path d="" fill="#FBFBFB" transform="translate(0,0)"/>
<path d="" fill="#F9FBFA" transform="translate(0,0)"/>
<path d="" fill="#E6E5E7" transform="translate(0,0)"/>
<path d="" fill="#F9FBF9" transform="translate(0,0)"/>
<path d="" fill="#000000" transform="translate(0,0)"/>
<path d="" fill="#F9F9F7" transform="translate(0,0)"/>
<path d="" fill="#FAFAF9" transform="translate(0,0)"/>
<path d="" fill="#E8E8E9" transform="translate(0,0)"/>
<path d="" fill="#F8F6F7" transform="translate(0,0)"/>
<path d="" fill="#E4E7E8" transform="translate(0,0)"/>
<path d="" fill="#F6F5F5" transform="translate(0,0)"/>
<path d="" fill="#FAFBF9" transform="translate(0,0)"/>
<path d="" fill="#F7F8F8" transform="translate(0,0)"/>
<path d="" fill="#F8F7F7" transform="translate(0,0)"/>
<path d="" fill="#E8E9EA" transform="translate(0,0)"/>
<path d="" fill="#F4F4F2" transform="translate(0,0)"/>
<path d="" fill="#FAFBFB" transform="translate(0,0)"/>
<path d="" fill="#FBFAF7" transform="translate(0,0)"/>
<path d="" fill="#FAFAFA" transform="translate(0,0)"/>
<path d="" fill="#E6E4E5" transform="translate(0,0)"/>
<path d="" fill="#EAEAE8" transform="translate(0,0)"/>
<path d="" fill="#F3F4F3" transform="translate(0,0)"/>
<path d="" fill="#FCFAFA" transform="translate(0,0)"/>
<path d="" fill="#EAEAE9" transform="translate(0,0)"/>
<path d="" fill="#E9EBEB" transform="translate(0,0)"/>
<path d="" fill="#F2F3F3" transform="translate(0,0)"/>
<path d="" fill="#F3F2F1" transform="translate(0,0)"/>
<path d="" fill="#F8F8F9" transform="translate(0,0)"/>
<path d="" fill="#FAFAF9" transform="translate(0,0)"/>
<path d="" fill="#FCFBFC" transform="translate(0,0)"/>
<path d="" fill="#F1F0F0" transform="translate(0,0)"/>
<path d="" fill="#F8F8FA" transform="translate(0,0)"/>
<path d="" fill="#F9F9FB" transform="translate(0,0)"/>
<path d="" fill="#F8F7F7" transform="translate(0,0)"/>
<path d="" fill="#FBFBFB" transform="translate(0,0)"/>
<path d="" fill="#EBEBEA" transform="translate(0,0)"/>
<path d="" fill="#F8F9F9" transform="translate(0,0)"/>
<path d="" fill="#FAFAF9" transform="translate(0,0)"/>
<path d="" fill="#F1F0EF" transform="translate(0,0)"/>
<path d="" fill="#F7F8F7" transform="translate(0,0)"/>
<path d="" fill="#F5F5F7" transform="translate(0,0)"/>
<path d="" fill="#F4F2F3" transform="translate(0,0)"/>
<path d="" fill="#E9ECED" transform="translate(0,0)"/>
<path d="" fill="#EEEEEF" transform="translate(0,0)"/>
<path d="" fill="#E7E8EB" transform="translate(0,0)"/>
<path d="" fill="#F7F6F6" transform="translate(0,0)"/>
<path d="" fill="#F9FAF8" transform="translate(0,0)"/>
<path d="" fill="#FBFBFB" transform="translate(0,0)"/>
<path d="" fill="#F9FAFA" transform="translate(0,0)"/>
<path d="" fill="#FAFAFA" transform="translate(0,0)"/>
<path d="" fill="#F4F5F5" transform="translate(0,0)"/>
<path d="" fill="#EDEDEB" transform="translate(0,0)"/>
<path d="" fill="#F4F6F5" transform="translate(0,0)"/>
<path d="" fill="#F9F9F8" transform="translate(0,0)"/>
<path d="" fill="#F9F7F9" transform="translate(0,0)"/>
<path d="" fill="#FBFBFB" transform="translate(0,0)"/>
<path d="" fill="#F7F9F5" transform="translate(0,0)"/>
<path d="" fill="#F9F9F8" transform="translate(0,0)"/>
<path d="" fill="#020303" transform="translate(0,0)"/>
<path d="" fill="#F8FAFB" transform="translate(0,0)"/>
<path d="" fill="#FBFBFB" transform="translate(0,0)"/>
<path d="" fill="#E9EAEB" transform="translate(0,0)"/>
<path d="" fill="#F7F7F8" transform="translate(0,0)"/>
<path d="" fill="#F7F6F7" transform="translate(0,0)"/>
<path d="" fill="#F9FBF9" transform="translate(0,0)"/>
<path d="" fill="#F5F5F8" transform="translate(0,0)"/>
<path d="" fill="#FAFAFA" transform="translate(0,0)"/>
<path d="" fill="#F9FAF9" transform="translate(0,0)"/>
<path d="" fill="#FAFBFA" transform="translate(0,0)"/>
<path d="" fill="#F8F7F7" transform="translate(0,0)"/>
<path d="" fill="#F4F5F4" transform="translate(0,0)"/>
<path d="" fill="#F7F9F7" transform="translate(0,0)"/>
<path d="" fill="#E4E3E4" transform="translate(0,0)"/>
<path d="" fill="#E0E0E1" transform="translate(0,0)"/>
<path d="" fill="#F9F9F7" transform="translate(0,0)"/>
<path d="" fill="#F8F8F8" transform="translate(0,0)"/>
<path d="" fill="#FAFBF9" transform="translate(0,0)"/>
<path d="" fill="#E3E4E3" transform="translate(0,0)"/>
<path d="" fill="#F7F8F7" transform="translate(0,0)"/>
<path d="" fill="#F2F0F2" transform="translate(0,0)"/>
<path d="" fill="#F1F3F2" transform="translate(0,0)"/>
<path d="" fill="#F7F8F9" transform="translate(0,0)"/>
<path d="" fill="#E8E8E7" transform="translate(0,0)"/>
<path d="" fill="#F9FBFB" transform="translate(0,0)"/>
<path d="" fill="#EEEEED" transform="translate(0,0)"/>
<path d="" fill="#F8F7F8" transform="translate(0,0)"/>
<path d="" fill="#E9E9EA" transform="translate(0,0)"/>
<path d="" fill="#F3F4F4" transform="translate(0,0)"/>
<path d="" fill="#EFF1F0" transform="translate(0,0)"/>
<path d="" fill="#EFF1EE" transform="translate(0,0)"/>
<path d="" fill="#F6F7F9" transform="translate(0,0)"/>
<path d="" fill="#F7F9F8" transform="translate(0,0)"/>
<path d="" fill="#E8E8E6" transform="translate(0,0)"/>
<path d="" fill="#F5F5F6" transform="translate(0,0)"/>
<path d="" fill="#F4F6F6" transform="translate(0,0)"/>
<path d="" fill="#F4F4F3" transform="translate(0,0)"/>
<path d="" fill="#F3F4F4" transform="translate(0,0)"/>
<path d="" fill="#EFF1F0" transform="translate(0,0)"/>
<path d="" fill="#F6F5F3" transform="translate(0,0)"/>
<path d="" fill="#F6F5F5" transform="translate(0,0)"/>
<path d="" fill="#F8F7FA" transform="translate(0,0)"/>
<path d="" fill="#F2F2F0" transform="translate(0,0)"/>
<path d="" fill="#F3F5F6" transform="translate(0,0)"/>
<path d="" fill="#EDF1F0" transform="translate(0,0)"/>
<path d="" fill="#F8FAF9" transform="translate(0,0)"/>
<path d="" fill="#F1F3F2" transform="translate(0,0)"/>
<path d="" fill="#F7F8F9" transform="translate(0,0)"/>
<path d="" fill="#F1F2F4" transform="translate(0,0)"/>
<path d="" fill="#F3F4F2" transform="translate(0,0)"/>
<path d="" fill="#F2F3F3" transform="translate(0,0)"/>
<path d="" fill="#F4F5F5" transform="translate(0,0)"/>
<path d="" fill="#000000" transform="translate(0,0)"/>
<path d="" fill="#EEEEEE" transform="translate(0,0)"/>
<path d="" fill="#F7F8F8" transform="translate(0,0)"/>
<path d="" fill="#F4F6F3" transform="translate(0,0)"/>
<path d="" fill="#F8F9F5" transform="translate(0,0)"/>
<path d="" fill="#F9F9FA" transform="translate(0,0)"/>
<path d="" fill="#F9FAFB" transform="translate(0,0)"/>
<path d="" fill="#FAFAFC" transform="translate(0,0)"/>
<path d="" fill="#FAFDFC" transform="translate(0,0)"/>
<path d="" fill="#F9F7F8" transform="translate(0,0)"/>
<path d="" fill="#F2F4F5" transform="translate(0,0)"/>
<path d="" fill="#F5F5F1" transform="translate(0,0)"/>
<path d="" fill="#F9F8F9" transform="translate(0,0)"/>
<path d="" fill="#F4F6F6" transform="translate(0,0)"/>
<path d="" fill="#FAFAFC" transform="translate(0,0)"/>
<path d="" fill="#EAE9EA" transform="translate(0,0)"/>
<path d="" fill="#D8D8D7" transform="translate(0,0)"/>
<path d="" fill="#F8F7F7" transform="translate(0,0)"/>
<path d="" fill="#F5F7F6" transform="translate(0,0)"/>
<path d="" fill="#F2F4F5" transform="translate(0,0)"/>
<path d="" fill="#F4F6F5" transform="translate(0,0)"/>
<path d="" fill="#F9F9FB" transform="translate(0,0)"/>
<path d="" fill="#D7D9D8" transform="translate(0,0)"/>
<path d="" fill="#F6F7F6" transform="translate(0,0)"/>
<path d="" fill="#F6F7F7" transform="translate(0,0)"/>
<path d="" fill="#F3F6F3" transform="translate(0,0)"/>
<path d="" fill="#EAEBEA" transform="translate(0,0)"/>
<path d="" fill="#CDCDCC" transform="translate(0,0)"/>
<path d="" fill="#E7E8E6" transform="translate(0,0)"/>
<path d="" fill="#E1E4E0" transform="translate(0,0)"/>
<path d="" fill="#D5D4D4" transform="translate(0,0)"/>
<path d="" fill="#D9DAD9" transform="translate(0,0)"/>
<path d="" fill="#E0E1DF" transform="translate(0,0)"/>
<path d="" fill="#D6D7D8" transform="translate(0,0)"/>
<path d="" fill="#000000" transform="translate(0,0)"/>
<path d="" fill="#C3C3C4" transform="translate(0,0)"/>
<path d="" fill="#C2C4C3" transform="translate(0,0)"/>
<path d="" fill="#BEBFBF" transform="translate(0,0)"/>
<path d="" fill="#C2C1C2" transform="translate(0,0)"/>
</svg>
